<svg width="1440" height="1024" viewBox="0 0 1440 1024" fill="none" xmlns="http://www.w3.org/2000/svg">
<g clip-path="url(#clip0_2_4)">
<rect width="1440" height="1024" fill="white"/>
<path d="M714.457 291.674C859.779 242.94 832.258 58.8216 795.999 0.045135L3.49998 1.2898L4.36222 550.289C39.4329 595.234 161.398 573.043 195.884 563.988C284.346 539.849 320.866 552.292 333.884 563.772C374.954 608.207 403.474 621.162 532.462 613.46C635.652 607.298 693.736 575.702 709.848 540.676C717.329 528.498 727.716 456.353 709.667 425.181C691.618 394.01 687.325 378.378 686.476 368.213C686.454 354.213 679.374 303.438 714.457 291.674Z" fill="#F8FBFF"/>
<path d="M299.378 553.049L321.486 541.378L333.157 563.487L311.049 575.157L299.378 553.049Z" stroke="#D72222" stroke-opacity="0.3" stroke-width="5"/>
<circle cx="699" cy="306" r="13" stroke="#0F6EB4" stroke-opacity="0.3" stroke-width="4"/>
<circle cx="664" cy="583" r="8" stroke="#B0B40F" stroke-opacity="0.3" stroke-width="4"/>
<path d="M793.43 19.11C793.013 17.218 795.26 15.8978 796.71 17.1834L803.247 22.9822C803.896 23.5571 804.84 23.6493 805.588 23.2105L813.123 18.7848C814.793 17.8035 816.744 19.5333 815.969 21.3091L812.474 29.3187C812.127 30.1128 812.332 31.0398 812.98 31.6147L819.518 37.4135C820.967 38.6991 819.924 41.0884 817.996 40.9003L809.299 40.0517C808.436 39.9675 807.618 40.4482 807.271 41.2424L803.777 49.2519C803.002 51.0277 800.407 50.7746 799.99 48.8825L798.11 40.3485C797.923 39.5024 797.213 38.8725 796.351 38.7884L787.653 37.9398C785.725 37.7517 785.164 35.2059 786.835 34.2247L794.37 29.799C795.117 29.3602 795.497 28.4902 795.31 27.644L793.43 19.11Z" fill="#D9D9D9" fill-opacity="0.4"/>
</g>
<defs>
<clipPath id="clip0_2_4">
<rect width="1440" height="1024" fill="white"/>
</clipPath>
</defs>
</svg>
