<svg width="1442" height="1026" viewBox="0 0 1442 1026" fill="none" xmlns="http://www.w3.org/2000/svg">
<g clip-path="url(#clip0_11_11)">
<rect width="1440" height="1024" transform="translate(1440.31 1025.96) rotate(-179.923)" fill="white"/>
<path d="M1399.7 6.88237C1397.31 32.2518 1387.43 70.4863 1365.36 103.737C1343.3 136.974 1309.09 165.214 1258.02 170.687C1155 181.728 1061.73 151.487 1027.92 134.965C1027.83 134.924 1027.75 134.894 1027.66 134.869C940.808 110.914 787.548 82.563 640.747 217.418C640.67 217.488 640.6 217.568 640.54 217.652L640.946 217.943L640.539 217.652C589.814 288.55 567.053 324.647 561.951 333.943L562.389 334.184L561.951 333.943C561.908 334.02 561.878 334.09 561.852 334.169C544.87 383.688 508.177 456.022 453.274 512.139C398.378 568.25 325.328 608.102 235.588 592.822C145.769 577.529 87.8831 558.412 52.0153 540.735C34.0812 531.897 21.6639 523.424 13.5131 515.979C5.34928 508.522 1.51249 502.14 0.639194 497.492C0.634588 497.467 0.632301 497.443 0.632346 497.41L1.29722 1.00358C1.29759 0.726848 1.52262 0.503089 1.79923 0.504253L1399.2 6.36992C1399.52 6.37126 1399.72 6.61348 1399.7 6.88237Z" fill="#F8FBFF" stroke="#F8FBFF"/>
<path d="M646.397 227.255C645.796 229.097 643.189 229.093 642.593 227.25L639.903 218.935C639.637 218.111 638.87 217.552 638.003 217.551L629.264 217.539C627.327 217.536 626.525 215.056 628.094 213.919L635.17 208.792C635.872 208.284 636.166 207.382 635.9 206.557L633.211 198.243C632.614 196.399 634.725 194.87 636.291 196.011L643.354 201.157C644.054 201.667 645.004 201.668 645.705 201.16L652.782 196.033C654.351 194.896 656.458 196.431 655.857 198.273L653.145 206.58C652.876 207.404 653.168 208.307 653.869 208.817L660.932 213.963C662.497 215.104 661.689 217.582 659.751 217.58L651.012 217.568C650.146 217.567 649.377 218.124 649.108 218.948L646.397 227.255Z" fill="#D9D9D9" fill-opacity="0.4"/>
<circle cx="560.849" cy="335.995" r="9" transform="rotate(-179.923 560.849 335.995)" stroke="#0FB4A0" stroke-opacity="0.4" stroke-width="2"/>
<path d="M168.26 576.703L149.046 592.698L133.052 573.484L152.266 557.489L168.26 576.703Z" stroke="#D72222" stroke-opacity="0.3" stroke-width="5"/>
<circle cx="1301.09" cy="155.986" r="16.5" transform="rotate(-179.923 1301.09 155.986)" stroke="#D8DC12" stroke-opacity="0.4" stroke-width="5"/>
</g>
<defs>
<clipPath id="clip0_11_11">
<rect width="1440" height="1024" fill="white" transform="translate(1440.31 1025.96) rotate(-179.923)"/>
</clipPath>
</defs>
</svg>
