<svg width="1440" height="1024" viewBox="0 0 1440 1024" fill="none" xmlns="http://www.w3.org/2000/svg">
<rect width="1440" height="1024" fill="white"/>
<path d="M724.627 526.84C579.077 574.89 605.732 759.136 641.714 818.082L1434.21 820.564L1435.93 271.566C1401.07 226.457 1279 248.075 1244.47 256.967C1155.9 280.689 1119.44 268.075 1106.47 256.535C1065.61 211.906 1037.16 198.817 908.133 205.913C804.914 211.59 746.682 242.913 730.406 277.862C722.868 290.005 712.142 362.1 730.045 393.357C747.947 424.613 752.166 440.264 752.967 450.433C752.923 464.433 759.764 515.24 724.627 526.84Z" fill="#F8FBFF"/>
<path d="M724.726 506.406C724.309 504.514 726.557 503.194 728.006 504.48L734.544 510.278C735.192 510.853 736.137 510.945 736.884 510.507L744.419 506.081C746.089 505.1 748.04 506.83 747.265 508.605L743.77 516.615C743.424 517.409 743.628 518.336 744.276 518.911L750.814 524.71C752.263 525.995 751.221 528.385 749.292 528.196L740.595 527.348C739.733 527.264 738.914 527.744 738.568 528.539L735.073 536.548C734.298 538.324 731.704 538.071 731.287 536.179L729.406 527.645C729.22 526.799 728.509 526.169 727.647 526.085L718.95 525.236C717.021 525.048 716.46 522.502 718.131 521.521L725.666 517.095C726.413 516.656 726.793 515.786 726.606 514.94L724.726 506.406Z" fill="#D9D9D9" fill-opacity="0.4"/>
<path d="M1106.73 251.406C1106.31 249.514 1108.56 248.194 1110.01 249.48L1116.54 255.278C1117.19 255.853 1118.14 255.945 1118.88 255.507L1126.42 251.081C1128.09 250.1 1130.04 251.83 1129.26 253.605L1125.77 261.615C1125.42 262.409 1125.63 263.336 1126.28 263.911L1132.81 269.71C1134.26 270.995 1133.22 273.385 1131.29 273.196L1122.59 272.348C1121.73 272.264 1120.91 272.744 1120.57 273.539L1117.07 281.548C1116.3 283.324 1113.7 283.071 1113.29 281.179L1111.41 272.645C1111.22 271.799 1110.51 271.169 1109.65 271.085L1100.95 270.236C1099.02 270.048 1098.46 267.502 1100.13 266.521L1107.67 262.095C1108.41 261.656 1108.79 260.786 1108.61 259.94L1106.73 251.406Z" fill="#D9D9D9" fill-opacity="0.4"/>
</svg>
