<svg width="1440" height="1024" viewBox="0 0 1440 1024" fill="none" xmlns="http://www.w3.org/2000/svg">
<rect width="1440" height="1024" fill="white"/>
<path d="M799.468 580.449L799.061 580.158L799.468 580.449C850.098 509.483 872.812 473.356 877.901 464.053L877.462 463.813L877.901 464.053C877.943 463.976 877.973 463.906 878 463.827C894.915 414.285 931.512 341.902 986.339 285.711C1041.16 229.527 1114.16 189.578 1203.92 204.737C1293.76 219.91 1351.67 238.949 1387.56 256.578C1405.51 265.392 1417.93 273.848 1426.09 281.282C1434.27 288.728 1438.11 295.106 1438.99 299.752C1439 299.777 1439 299.802 1439 299.835V796.241C1439 796.518 1438.78 796.742 1438.5 796.741L41.0878 792.747C40.7753 792.746 40.5671 792.504 40.5921 792.235C42.9455 766.863 52.7794 728.615 74.8012 695.335C96.8145 662.068 130.991 633.783 182.054 628.241C285.061 617.062 378.367 647.179 412.201 663.655C412.286 663.696 412.367 663.726 412.456 663.75C499.343 687.589 652.64 715.735 799.261 580.684C799.337 580.613 799.408 580.533 799.468 580.449Z" fill="#F8FBFF" stroke="#F8FBFF"/>
<path d="M793.598 570.854C794.197 569.011 796.803 569.011 797.402 570.854L800.103 579.165C800.37 579.989 801.138 580.547 802.005 580.547H810.743C812.681 580.547 813.486 583.026 811.919 584.165L804.849 589.302C804.148 589.811 803.855 590.714 804.123 591.538L806.823 599.849C807.422 601.691 805.313 603.224 803.745 602.085L796.676 596.948C795.975 596.439 795.025 596.439 794.324 596.948L787.255 602.085C785.687 603.224 783.578 601.691 784.177 599.849L786.877 591.538C787.145 590.714 786.852 589.811 786.151 589.302L779.081 584.165C777.514 583.026 778.319 580.547 780.257 580.547H788.995C789.862 580.547 790.63 579.989 790.897 579.165L793.598 570.854Z" fill="#D9D9D9" fill-opacity="0.4"/>
<circle cx="879" cy="462" r="9" stroke="#0FB4A0" stroke-opacity="0.4" stroke-width="2"/>
<path d="M1271.27 220.766L1290.46 204.746L1306.48 223.938L1287.29 239.958L1271.27 220.766Z" stroke="#D72222" stroke-opacity="0.3" stroke-width="5"/>
<circle cx="139" cy="643" r="16.5" stroke="#D8DC12" stroke-opacity="0.4" stroke-width="5"/>
</svg>
