<svg width="210" height="162" viewBox="0 0 210 162" fill="none" xmlns="http://www.w3.org/2000/svg">
<rect width="210" height="162" rx="45" fill="#1C2359"/>
<path d="M69.0248 45.7809C57.7969 45.7809 48.6915 54.8767 48.6915 66.1142C48.6915 77.3326 57.7873 86.4379 69.0248 86.4379C80.2432 86.4379 89.3485 77.3422 89.3485 66.1142C89.3485 54.8767 80.2432 45.7809 69.0248 45.7809ZM69.0248 82.692C59.8427 82.692 52.3894 75.2484 52.3894 66.0566C52.3894 56.8744 59.8331 49.4212 69.0248 49.4212C78.1974 49.4212 85.6411 56.8648 85.6411 66.0566C85.6411 75.2484 78.1974 82.692 69.0248 82.692Z" fill="#FCFFFC"/>
<path d="M145.959 46.7414V110.44H53.5996C53.5996 110.44 52.2837 109.691 52.1396 117.019V122.1C52.1396 122.1 52.3606 122.677 54.4448 122.533H161V46.7414C160.99 46.7414 154.104 40.4695 145.959 46.7414Z" stroke="white" stroke-miterlimit="10"/>
<path d="M66.566 81.9429L98.9532 39L65.8264 62.8966L48 53.8586L66.566 81.9429Z" fill="#FCFFFC"/>
<path d="M95.169 60.7548L115.214 85.391C115.214 85.391 118.067 88.8871 121.995 85.3526C121.995 85.3526 126.375 82.5672 123.522 78.8502L103.362 54.0795C103.362 54.0795 101.249 51.8896 97.3493 55.0592C97.3493 55.0688 92.9215 57.9982 95.169 60.7548Z" fill="#FCFFFC"/>
<path d="M152.538 55.0976L131.926 79.2632C131.926 79.2632 128.997 82.6921 133.185 85.9289C133.185 85.9289 136.71 89.7323 139.85 86.2554L160.577 61.9554C160.577 61.9554 162.354 59.4774 158.532 56.2117C158.532 56.2117 154.843 52.389 152.538 55.0976Z" fill="#FCFFFC"/>
<path d="M153.931 52.0721L104.995 51.9184C104.995 51.9184 98.0408 51.8992 98.425 57.1818C98.425 57.1818 97.4741 62.33 104.697 62.4836L153.902 62.6373C153.902 62.6373 158.58 62.3972 158.599 57.3643C158.589 57.3643 159.415 52.0913 153.931 52.0721Z" fill="#FCFFFC"/>
<path d="M110.076 98.5207L65.1637 98.3766C65.1637 98.3766 58.7861 98.3574 59.1319 103.64C59.1319 103.64 58.2579 108.798 64.8852 108.942L110.047 109.086C110.047 109.086 114.34 108.846 114.359 103.813C114.359 103.822 115.108 98.5399 110.076 98.5207Z" fill="#FCFFFC"/>
<path d="M143.904 72.3766H110.806V109.086H143.904V72.3766Z" fill="#FCFFFC"/>
<path d="M126.73 68.5347C133.791 68.5347 139.514 62.8111 139.514 55.7507C139.514 48.6904 133.791 42.9668 126.73 42.9668C119.67 42.9668 113.946 48.6904 113.946 55.7507C113.946 62.8111 119.67 68.5347 126.73 68.5347Z" fill="#FCFFFC"/>
<path d="M65.692 91.9414H56.7788V108.894H65.692V91.9414Z" fill="#FCFFFC"/>
<path d="M77.9284 91.9414H69.0152V108.894H77.9284V91.9414Z" fill="#FCFFFC"/>
<path d="M56.7788 92.5081C56.7788 92.5081 55.8375 90.395 61.2354 90.5007C61.2354 90.5007 65.692 90.2798 65.692 92.5081H56.7788Z" fill="#FCFFFC"/>
<path d="M69.0537 92.681C69.0537 92.681 68.1124 90.568 73.5103 90.6737C73.5103 90.6737 77.9669 90.4527 77.9669 92.681H69.0537Z" fill="#FCFFFC"/>
</svg>
