<svg width="210" height="162" viewBox="0 0 210 162" fill="none" xmlns="http://www.w3.org/2000/svg">
<rect width="210" height="162" rx="45" fill="#1C2359"/>
<path d="M141.414 61.0407L96.0972 44.7408C95.8005 44.6308 95.4817 44.6308 95.196 44.7408L49.8793 61.0407C49.3517 61.2275 49 61.7331 49 62.3047C49 62.8652 49.3517 63.3708 49.8793 63.5686L95.196 79.8686C95.3388 79.9235 95.4927 79.9455 95.6466 79.9455C95.8005 79.9455 95.9544 79.9235 96.0972 79.8686L141.414 63.5686C141.941 63.3818 142.293 62.8762 142.293 62.3047C142.304 61.7331 141.952 61.2275 141.414 61.0407Z" stroke="white" stroke-miterlimit="10"/>
<path d="M96.0972 77.3406L50.7916 61.0407C50.3849 60.8978 49.9233 60.9528 49.5715 61.2056C49.2198 61.4584 49 61.865 49 62.3047V120.349C49 120.888 49.3188 121.371 49.8134 121.58L95.13 140.782C95.2949 140.848 95.4707 140.892 95.6466 140.892C95.9104 140.892 96.1632 140.815 96.383 140.672C96.7567 140.43 96.9875 140.001 96.9875 139.562V78.6046C96.9875 78.0331 96.6358 77.5275 96.0972 77.3406Z" stroke="white" stroke-miterlimit="10"/>
<path d="M141.733 61.2056C141.381 60.9528 140.919 60.8978 140.513 61.0407L95.1959 77.3406C94.6684 77.5275 94.3167 78.0331 94.3167 78.6046V139.562C94.3167 140.012 94.5475 140.441 94.9322 140.683C95.152 140.826 95.4048 140.903 95.6576 140.903C95.8444 140.903 96.0313 140.87 96.2071 140.782L141.524 120.448C142.007 120.228 142.315 119.756 142.315 119.228V62.3157C142.304 61.8651 142.095 61.4584 141.733 61.2056Z" stroke="white" stroke-miterlimit="10"/>
<path d="M60.266 126.01V64.8766L72.9938 69.0203V131.406L60.266 126.01Z" fill="#FDFFFD"/>
<path d="M160 51.3135C160 51.7641 159.989 52.2148 159.967 52.6654C159.67 59.2162 157.23 65.3822 152.988 70.3502C152.493 70.9328 151.966 71.5043 151.416 72.0429C151.295 72.1638 151.163 72.2957 151.042 72.4166C147.734 75.615 143.788 77.9451 139.501 79.297C138.139 79.7257 136.732 80.0554 135.303 80.2753C134.226 80.4511 133.149 80.55 132.049 80.605C131.599 80.627 131.148 80.638 130.698 80.638C130.247 80.638 129.796 80.627 129.346 80.605C128.4 80.561 127.466 80.4731 126.543 80.3412C125.136 80.1434 123.751 79.8466 122.399 79.4509C117.882 78.132 113.738 75.7139 110.276 72.3616C110.166 72.2627 110.067 72.1528 109.957 72.0538C109.397 71.4933 108.869 70.9218 108.352 70.3173C104.121 65.3602 101.692 59.2052 101.395 52.6764C101.373 52.2258 101.362 51.7751 101.362 51.3245C101.362 50.8738 101.373 50.4232 101.395 49.9726C101.681 43.5097 104.066 37.4206 108.21 32.4856C108.759 31.8371 109.342 31.1996 109.946 30.5841C110.001 30.5292 110.067 30.4632 110.122 30.4083C113.463 27.1109 117.464 24.7258 121.828 23.3519C123.224 22.9122 124.652 22.5825 126.103 22.3517C127.158 22.1868 128.236 22.0769 129.313 22.033C129.763 22.011 130.203 22 130.665 22C131.115 22 131.566 22.011 132.017 22.033C133.259 22.0879 134.49 22.2198 135.699 22.4286C137.171 22.6814 138.622 23.0441 140.04 23.5278C144.217 24.9346 148.053 27.2758 151.273 30.4632C151.317 30.5072 151.361 30.5402 151.394 30.5841C152.009 31.1996 152.603 31.8481 153.164 32.5076C157.296 37.4316 159.659 43.5098 159.956 49.9616C159.989 50.4232 160 50.8628 160 51.3135Z" stroke="white" stroke-miterlimit="10"/>
<path d="M151.416 72.0429C156.956 66.5033 160 59.1502 160 51.3135C160 43.4878 156.956 36.1237 151.416 30.5841C145.876 25.0446 138.523 22 130.687 22V80.627C138.512 80.627 145.876 77.5824 151.416 72.0429Z" stroke="white" stroke-miterlimit="10"/>
<path d="M132.039 22.033V80.594C131.588 80.616 131.137 80.627 130.687 80.627C130.236 80.627 129.785 80.616 129.335 80.594V22.033C129.785 22.011 130.225 22 130.687 22C131.137 22.011 131.588 22.022 132.039 22.033Z" stroke="white" stroke-miterlimit="10"/>
<path d="M160 51.3135C160 51.7641 159.989 52.2148 159.967 52.6654H101.406C101.384 52.2148 101.373 51.7641 101.373 51.3135L101.406 49.9616H159.967C159.989 50.4232 160 50.8629 160 51.3135Z" stroke="white" stroke-miterlimit="10"/>
<path d="M126.543 80.3412C125.136 80.1433 123.751 79.8466 122.399 79.4509C120.025 76.2854 118.047 73.065 116.497 69.7896C116.101 68.9653 115.738 68.1409 115.398 67.3166C114.2 64.382 113.32 61.4253 112.793 58.4357C112.452 56.5233 112.243 54.5998 112.177 52.6764C112.144 51.7751 112.144 50.8848 112.166 49.9835C112.276 46.1146 112.936 42.2457 114.145 38.3878C114.485 37.3107 114.848 36.2665 115.244 35.2663C115.585 34.398 115.936 33.5737 116.299 32.7713C118.113 28.7925 120.201 25.6051 121.861 23.3739C123.256 22.9342 124.685 22.6045 126.136 22.3737C125.444 23.165 124.279 24.5719 122.949 26.4954C121.663 28.3748 120.223 30.7379 118.926 33.5187C118.552 34.3211 118.189 35.1564 117.838 36.0247C117.42 37.0689 117.024 38.157 116.673 39.3001C115.574 42.8502 114.958 46.4224 114.848 49.9835C114.815 50.8848 114.826 51.7861 114.859 52.6764C114.925 54.4679 115.123 56.2485 115.453 58.0291C115.969 60.8868 116.827 63.7335 118.003 66.5472C118.354 67.3826 118.728 68.2179 119.135 69.0422C120.992 72.8672 123.476 76.6481 126.543 80.3412Z" stroke="white" stroke-miterlimit="10"/>
<path d="M149.613 52.6655C149.547 54.5889 149.339 56.5124 148.998 58.4248C148.437 61.5353 147.514 64.6349 146.228 67.6904C145.876 68.5147 145.503 69.3391 145.107 70.1634C143.601 73.2519 141.733 76.2965 139.501 79.2861C138.139 79.7148 136.732 80.0445 135.303 80.2643C138.248 76.7142 140.645 73.0871 142.48 69.405C142.898 68.5807 143.271 67.7454 143.634 66.921C144.898 63.9754 145.799 60.9968 146.338 58.0072C146.657 56.2266 146.855 54.446 146.932 52.6545C146.965 51.7532 146.975 50.8629 146.943 49.9616C146.833 46.4005 146.228 42.8284 145.118 39.2782C144.788 38.2121 144.426 37.1899 144.03 36.2007C143.689 35.3323 143.326 34.497 142.964 33.7057C140.348 28.0672 137.16 24.0774 135.732 22.4397C137.204 22.6925 138.655 23.0552 140.073 23.5388C141.744 25.792 143.799 28.9685 145.58 32.9143C145.942 33.7167 146.294 34.541 146.624 35.4093C146.998 36.3655 147.349 37.3548 147.668 38.3879C148.877 42.2348 149.536 46.1147 149.646 49.9836C149.646 50.8739 149.646 51.7642 149.613 52.6655Z" stroke="white" stroke-miterlimit="10"/>
<path d="M153.174 32.5186C151.053 33.6617 148.855 34.6179 146.602 35.3983C145.755 35.6951 144.887 35.9588 144.019 36.2006C141.744 36.8381 139.402 37.2888 137.017 37.5636C135.38 37.7504 133.709 37.8493 132.027 37.8603C131.896 37.8603 131.764 37.8603 131.632 37.8603C131.313 37.8603 130.994 37.8603 130.675 37.8493C130.225 37.8383 129.774 37.8273 129.324 37.8053C126.884 37.6954 124.421 37.3987 121.937 36.937C120.476 36.6623 119.102 36.3435 117.816 36.0028C116.904 35.761 116.024 35.5082 115.211 35.2444C111.935 34.2112 109.506 33.1121 108.198 32.4746C108.748 31.8261 109.331 31.1886 109.935 30.5731C109.99 30.5182 110.056 30.4522 110.111 30.3973C110.726 30.683 111.496 31.0128 112.408 31.3755C113.507 31.8042 114.793 32.2768 116.255 32.7384C117.079 32.9912 117.959 33.244 118.882 33.4858C120.025 33.7826 121.234 34.0574 122.509 34.2882C124.795 34.7168 127.07 34.9806 129.313 35.0905C129.763 35.1125 130.214 35.1235 130.664 35.1345C131.115 35.1455 131.566 35.1455 132.016 35.1455C133.61 35.1345 135.193 35.0356 136.754 34.8597C138.853 34.6179 140.919 34.2222 142.931 33.6836C143.81 33.4528 144.678 33.1781 145.536 32.8923C147.492 32.2218 149.404 31.4085 151.262 30.4523C151.306 30.4962 151.35 30.5292 151.383 30.5731C152.031 31.2106 152.625 31.8591 153.174 32.5186Z" stroke="white" stroke-miterlimit="10"/>
<path d="M110.276 72.3507C112.287 71.3285 114.365 70.4712 116.497 69.7787C117.365 69.5039 118.244 69.2511 119.124 69.0313C120.915 68.5807 122.751 68.2509 124.608 68.0311C126.169 67.8552 127.752 67.7563 129.346 67.7453C130.236 67.7344 131.137 67.7563 132.038 67.8003C134.281 67.9102 136.556 68.174 138.842 68.6027C140.117 68.8445 141.337 69.1192 142.48 69.416C143.403 69.6578 144.283 69.9106 145.107 70.1634C147.657 70.9548 149.69 71.8011 151.042 72.4166C151.174 72.2957 151.295 72.1748 151.416 72.0429C151.965 71.4933 152.493 70.9328 152.988 70.3503C151.658 69.7128 149.328 68.6796 146.228 67.6904C145.415 67.4266 144.546 67.1738 143.623 66.932C142.315 66.5803 140.908 66.2615 139.424 65.9757C136.94 65.5141 134.478 65.2174 132.038 65.1075C131.137 65.0635 130.236 65.0525 129.346 65.0525C127.664 65.0635 126.004 65.1624 124.356 65.3493C122.19 65.5911 120.069 65.9867 117.992 66.5363C117.123 66.7671 116.255 67.0199 115.398 67.3057C112.98 68.0971 110.628 69.0972 108.363 70.3063L110.276 72.3507Z" stroke="white" stroke-miterlimit="10"/>
<path d="M131.841 32.046L139.051 41.6303L146.272 51.2256H131.841H117.398L124.619 41.6303L131.841 32.046Z" fill="#FDFFFD"/>
<path d="M138.391 50.9179H125.279V72.7244H138.391V50.9179Z" fill="#FDFFFD"/>
</svg>
