<svg width="210" height="162" viewBox="0 0 210 162" fill="none" xmlns="http://www.w3.org/2000/svg">
<rect width="210" height="162" rx="45" fill="#1C2359"/>
<path d="M105.342 135.757C135.651 135.757 160.221 111.187 160.221 80.8787C160.221 50.57 135.651 26 105.342 26C75.0337 26 50.4637 50.57 50.4637 80.8787C50.4637 111.187 75.0337 135.757 105.342 135.757Z" stroke="white" stroke-miterlimit="10"/>
<path d="M156.649 79.5759L139.711 84.4302L132.987 91.6591L123.772 88.6225L110.365 62.5754L129.036 59.791L143.084 55.0943L156.649 79.5759Z" fill="white" stroke="#B8B8B8" stroke-miterlimit="10"/>
<path d="M106.687 102.156C104.145 100.842 103.146 97.7111 104.47 95.1684C105.784 92.6257 108.915 91.6275 111.458 92.9514L125.506 100.884C128.048 102.198 129.046 105.329 127.723 107.871C126.409 110.414 123.278 111.412 120.735 110.089L106.687 102.156Z" fill="white" stroke="#B8B8B8" stroke-miterlimit="10"/>
<path d="M101.801 109.973C99.4163 108.733 98.4812 105.802 99.7105 103.406C100.95 101.021 103.882 100.086 106.277 101.326L119.474 108.775C121.86 110.015 122.795 112.947 121.565 115.342C120.326 117.727 117.394 118.662 114.998 117.433L101.801 109.973Z" fill="white" stroke="#B8B8B8" stroke-miterlimit="10"/>
<path d="M74.5145 59.0449L86.7869 63.6155C86.7869 63.6155 97.6722 61.451 98.2921 61.3459L105.447 68.4908L122.227 76.1295L134.437 82.5703C134.437 82.5703 132.535 88.0445 128.122 93.897C125.537 97.3223 123.415 105.045 119.937 109.679C117.468 112.957 116.638 116.099 112.435 115.311C102.285 113.409 82.9622 99.0455 80.0307 96.881C79.9467 96.818 74.6196 89.421 74.6196 89.421L59.0691 81.6247L74.5145 59.0449Z" fill="white" stroke="#B8B8B8" stroke-miterlimit="10"/>
<path d="M112.267 94.2752C109.64 92.9618 108.537 89.8307 109.818 87.267C111.09 84.7032 114.263 83.6841 116.89 84.9974L131.442 92.8883C134.069 94.2017 135.172 97.3328 133.901 99.8965C132.629 102.46 129.456 103.479 126.829 102.166L112.267 94.2752Z" fill="white" stroke="#B8B8B8" stroke-miterlimit="10"/>
<path d="M115.892 84.9975C113.181 83.7682 111.972 80.5635 113.202 77.8527C114.431 75.1419 117.678 74.0701 120.389 75.2994L135.382 82.6544C138.093 83.8838 139.301 87.0884 138.062 89.7993C136.832 92.5101 133.628 93.7184 130.917 92.4891L129.236 91.7431L115.892 84.9975Z" fill="white" stroke="#B8B8B8" stroke-miterlimit="10"/>
<path d="M119.369 74.8372L104.617 69.2264L98.3972 70.9075C97.8508 79.5444 89.9705 79.0085 88.6676 78.8614C87.3542 78.7143 87.9531 75.5202 87.9531 75.5202L92.7863 61.2935L108.967 57.4794C112.487 58.1519 127.554 60.0222 127.554 60.0222L119.369 74.8372Z" fill="white" stroke="#B8B8B8" stroke-miterlimit="10"/>
<path d="M87.6799 104.352C86.5872 106.285 83.9499 106.884 81.7855 105.665C79.6105 104.446 78.7384 101.893 79.8206 99.9491L83.372 93.6028C84.4543 91.659 87.102 91.0706 89.2665 92.2894C91.4415 93.5083 92.3136 96.0615 91.2313 98.0053L87.6799 104.352Z" fill="white" stroke="#B8B8B8" stroke-miterlimit="10"/>
<path d="M95.7494 108.618C94.5096 110.845 91.7357 111.654 89.5712 110.446C87.3962 109.227 86.6503 106.443 87.8901 104.226L91.9564 96.9547C93.1962 94.7272 95.9701 93.9182 98.1451 95.1265C100.32 96.3453 101.066 99.1297 99.8262 101.347L95.7494 108.618Z" fill="white" stroke="#B8B8B8" stroke-miterlimit="10"/>
<path d="M103.787 112.883C102.663 114.89 99.9943 115.542 97.8193 114.323C95.6549 113.115 94.8037 110.488 95.928 108.481L99.616 101.903C100.74 99.8966 103.409 99.2451 105.584 100.464C107.759 101.683 108.6 104.299 107.475 106.306L103.787 112.883Z" fill="white" stroke="#B8B8B8" stroke-miterlimit="10"/>
<path d="M111.079 117.107C110.144 118.767 107.759 119.209 105.752 118.084C103.745 116.96 102.873 114.691 103.798 113.031L106.855 107.588C107.791 105.917 110.176 105.476 112.183 106.611C114.189 107.735 115.061 110.005 114.126 111.665L111.079 117.107Z" fill="white" stroke="#B8B8B8" stroke-miterlimit="10"/>
<path d="M67.149 89.9044L79.3583 56.25L56.5893 48.2961L45 82.6965L67.149 89.9044Z" fill="white" stroke="#B8B8B8" stroke-miterlimit="10"/>
<path d="M130.917 56.3026L142.79 87.3091L166 78.9139L153.623 48.2961L130.917 56.3026Z" fill="white" stroke="#B8B8B8" stroke-miterlimit="10"/>
</svg>
