<svg width="210" height="162" viewBox="0 0 210 162" fill="none" xmlns="http://www.w3.org/2000/svg">
<rect y="0.987793" width="210" height="160.024" rx="45" fill="#1C2359"/>
<path d="M160.501 80.9854C160.501 87.7364 159.322 94.2274 157.147 100.243C153.907 109.199 148.481 117.138 141.486 123.403C131.183 132.641 117.515 138.273 102.506 138.273C70.4868 138.273 44.5231 112.626 44.5231 80.9854C44.5231 49.3563 70.4868 23.7092 102.506 23.7092C134.537 23.7092 160.501 49.3563 160.501 80.9854Z" stroke="white" stroke-miterlimit="10"/>
<path d="M102.518 127.259C128.819 127.259 150.141 106.314 150.141 80.4766C150.141 54.6395 128.819 33.6945 102.518 33.6945C76.2164 33.6945 54.8949 54.6395 54.8949 80.4766C54.8949 106.314 76.2164 127.259 102.518 127.259Z" stroke="white" stroke-miterlimit="10"/>
<path d="M139.826 94.9736L130.725 111.631L126.799 109.731L125.414 108.996L120.64 108.951L125.116 85.961L124.143 85.2485L133.622 91.6377L139.826 94.9736Z" fill="#FBFFFB"/>
<path d="M160.169 100.243C156.93 109.199 151.503 117.138 144.509 123.403L128.447 115.724L130.371 111.461L138.212 94.103L138.853 92.6895L160.169 100.243Z" fill="#FBFFFB"/>
<path d="M68.1171 107.809L118.911 117.658L132.202 50.7246L95.466 43.6118L93.9778 44.5956L89.4215 47.6262L78.6492 54.7617L68.1171 107.809Z" stroke="white" stroke-miterlimit="10"/>
<path d="M77.8523 92.4175L77.0586 96.4124L118.23 104.395L119.024 100.4L77.8523 92.4175Z" fill="#FBFFFB"/>
<path d="M93.1943 102.229L92.4005 106.224L116.868 110.968L117.661 106.973L93.1943 102.229Z" fill="#FBFFFB"/>
<path d="M72.5207 98.0856L71.727 102.08L89.6112 105.548L90.4049 101.553L72.5207 98.0856Z" fill="#FBFFFB"/>
<path d="M78.2678 84.3313L77.474 88.3262L87.4046 90.2515L88.1984 86.2566L78.2678 84.3313Z" fill="#FBFFFB"/>
<path d="M83.9696 59.9805L83.1759 63.9753L93.1065 65.9007L93.9003 61.9059L83.9696 59.9805Z" fill="#FBFFFB"/>
<path d="M90.8331 86.6688L90.0394 90.6637L119.82 96.4375L120.614 92.4426L90.8331 86.6688Z" fill="#FBFFFB"/>
<path d="M86.6825 77.5952L85.8888 81.5901L121.399 88.4746L122.192 84.4798L86.6825 77.5952Z" fill="#FBFFFB"/>
<path d="M81.875 67.9785L81.0812 71.9734L123.051 80.1103L123.844 76.1154L81.875 67.9785Z" fill="#FBFFFB"/>
<path d="M95.4515 62.3402L94.6577 66.3351L124.641 72.1481L125.434 68.1532L95.4515 62.3402Z" fill="#FBFFFB"/>
<path d="M114.364 48.5617L112.224 59.3367L128.76 62.541L130.9 51.766L114.364 48.5617Z" fill="#FBFFFB"/>
<path d="M106.993 47.3317L104.854 58.1067L110.1 59.1233L112.24 48.3483L106.993 47.3317Z" fill="#FBFFFB"/>
<path d="M88.025 54.6372L102.793 57.4982L104.933 46.7214L93.9779 44.5955L89.4216 47.6261L88.025 54.6372Z" fill="#FBFFFB"/>
<path d="M130.153 75.987L120.113 68.9872C120.113 68.9872 118.694 67.6981 117.984 68.795C117.572 69.4396 116.438 72.9904 120.045 75.5799C121.121 76.3489 124.303 79.1533 124.303 79.1533C124.303 79.1533 123.422 86.1305 124.887 89.8735L134.95 92.4292L133.656 85.5651C133.645 85.5764 130.588 77.1631 130.153 75.987Z" fill="#FBFFFB"/>
</svg>
