<svg width="210" height="162" viewBox="0 0 210 162" fill="none" xmlns="http://www.w3.org/2000/svg">
<rect width="210" height="162" rx="45" fill="#1C2359"/>
<path d="M141.915 44.0851C132.186 34.3558 119.252 29 105.5 29C91.748 29 78.8145 34.3558 69.0852 44.0851C59.3558 53.8145 54 66.7479 54 80.5C54 94.252 59.3558 107.186 69.0852 116.915C78.8145 126.644 91.748 132 105.5 132C119.252 132 132.186 126.644 141.915 116.915C151.644 107.186 157 94.252 157 80.5C157 66.7479 151.632 53.8145 141.915 44.0851Z" stroke="white" stroke-miterlimit="10"/>
<path d="M142.556 86.5306C145.891 66.0688 132.008 46.7771 111.546 43.4414C91.084 40.1057 71.7923 53.9892 68.4566 74.4511C65.121 94.9129 79.0045 114.205 99.4663 117.54C119.928 120.876 139.22 106.992 142.556 86.5306Z" stroke="white" stroke-miterlimit="10"/>
<path d="M105.5 119.698C83.878 119.698 66.302 102.11 66.302 80.5C66.302 58.8897 83.8896 41.302 105.5 41.302C127.11 41.302 144.698 58.8897 144.698 80.5C144.698 102.11 127.11 119.698 105.5 119.698ZM105.5 44.6348C85.7256 44.6348 69.6348 60.7256 69.6348 80.5C69.6348 100.274 85.7256 116.365 105.5 116.365C125.274 116.365 141.365 100.274 141.365 80.5C141.365 60.7256 125.274 44.6348 105.5 44.6348Z" stroke="white" stroke-miterlimit="10"/>
<path d="M105.5 41.302C104.576 41.302 103.828 42.0504 103.828 42.9742V53.0076C103.828 53.9314 104.576 54.6798 105.5 54.6798C106.424 54.6798 107.172 53.9314 107.172 53.0076V42.9742C107.161 42.0387 106.424 41.302 105.5 41.302Z" fill="white"/>
<path d="M105.5 106.332C104.576 106.332 103.828 107.08 103.828 108.004V118.037C103.828 118.961 104.576 119.71 105.5 119.71C106.424 119.71 107.172 118.961 107.172 118.037V108.004C107.161 107.08 106.424 106.332 105.5 106.332Z" fill="white"/>
<path d="M143.026 78.8278H132.992C132.069 78.8278 131.32 79.5762 131.32 80.5C131.32 81.4238 132.069 82.1722 132.992 82.1722H143.026C143.95 82.1722 144.698 81.4238 144.698 80.5C144.698 79.5762 143.95 78.8278 143.026 78.8278Z" fill="white"/>
<path d="M77.9959 78.8278H67.9625C67.0387 78.8278 66.2903 79.5762 66.2903 80.5C66.2903 81.4238 67.0387 82.1722 67.9625 82.1722H77.9959C78.9197 82.1722 79.6565 81.4238 79.6565 80.5C79.6565 79.5762 78.9197 78.8278 77.9959 78.8278Z" fill="white"/>
<path d="M77.9141 67.9758L74.2071 65.2277C73.868 64.9705 73.3885 65.0523 73.1313 65.3914C72.874 65.7306 72.9558 66.21 73.295 66.4673L77.0019 69.2153C77.3411 69.4726 77.8205 69.3908 78.0778 69.0516C78.3234 68.7008 78.2532 68.2214 77.9141 67.9758Z" fill="white"/>
<path d="M88.2515 55.1242L84.5445 52.3762C84.2054 52.1189 83.726 52.2007 83.4687 52.5399C83.2114 52.879 83.2933 53.3585 83.6324 53.6157L87.3394 56.3638C87.6785 56.6211 88.1579 56.5392 88.4152 56.2001C88.6608 55.8493 88.5906 55.3698 88.2515 55.1242Z" fill="white"/>
<path d="M132.735 67.9758L136.442 65.2277C136.781 64.9705 137.261 65.0523 137.518 65.3914C137.775 65.7306 137.693 66.21 137.354 66.4673L133.647 69.2153C133.308 69.4726 132.829 69.3908 132.571 69.0516C132.326 68.7008 132.396 68.2214 132.735 67.9758Z" fill="white"/>
<path d="M122.398 55.1242L126.105 52.3762C126.444 52.1189 126.923 52.2007 127.18 52.5399C127.438 52.879 127.356 53.3585 127.017 53.6157L123.31 56.3638C122.971 56.6211 122.491 56.5392 122.234 56.2001C121.977 55.8493 122.047 55.3698 122.398 55.1242Z" fill="white"/>
<path d="M133.378 93.0242L137.085 95.7723C137.424 96.0295 137.904 95.9477 138.161 95.6086C138.418 95.2694 138.336 94.79 137.997 94.5327L134.29 91.7847C133.951 91.5274 133.472 91.6093 133.215 91.9484C132.969 92.2875 133.039 92.767 133.378 93.0242Z" fill="white"/>
<path d="M123.041 105.876L126.748 108.624C127.087 108.881 127.566 108.799 127.824 108.46C128.081 108.121 127.999 107.642 127.66 107.384L123.953 104.636C123.614 104.379 123.134 104.461 122.877 104.8C122.632 105.139 122.702 105.619 123.041 105.876Z" fill="white"/>
<path d="M78.5572 93.0242L74.8503 95.7723C74.5111 96.0295 74.0317 95.9477 73.7744 95.6086C73.5171 95.2694 73.599 94.79 73.9381 94.5327L77.6451 91.7847C77.9842 91.5274 78.4637 91.6093 78.7209 91.9484C78.9665 92.2875 78.8963 92.767 78.5572 93.0242Z" fill="white"/>
<path d="M88.8947 105.876L85.1877 108.624C84.8486 108.881 84.3691 108.799 84.1118 108.46C83.8546 108.121 83.9364 107.642 84.2756 107.384L87.9825 104.636C88.3217 104.379 88.8011 104.461 89.0584 104.8C89.3039 105.139 89.2338 105.619 88.8947 105.876Z" fill="white"/>
<path d="M105.138 58.9131V83.1429L95.2912 98.0292L107.757 83.9381L105.138 58.9131Z" fill="white"/>
</svg>
