<svg width="210" height="162" viewBox="0 0 210 162" fill="none" xmlns="http://www.w3.org/2000/svg">
<rect width="210" height="162" rx="45" fill="#1C2359"/>
<path d="M167.703 47H79.9947C78.8901 47 77.9947 47.8954 77.9947 49V98.6212C77.9947 99.7257 78.8901 100.621 79.9947 100.621H167.703C168.808 100.621 169.703 99.7257 169.703 98.6212V49C169.703 47.8954 168.808 47 167.703 47Z" stroke="#FEFFFE" stroke-miterlimit="10"/>
<path d="M148.095 101.566V111.861C148.095 112.558 147.526 113.127 146.829 113.127H47.2662C46.5689 113.127 46 112.558 46 111.861V97.6942C46 96.171 46.5872 93.9506 46.8166 94.2442C47.0552 94.547 47.4222 94.7305 47.8167 94.7305H67.7274C68.4247 94.7305 68.9936 94.1708 68.9936 93.4643V76.3063C68.9936 75.9117 73.5262 73.8105 76.7009 73.8105C77.3983 73.8105 77.958 74.3611 77.9671 75.0584L78.2883 100.3H146.829C147.526 100.3 148.095 100.869 148.095 101.566Z" fill="#FEFFFE"/>
<path d="M63.8095 105.787C59.5154 105.787 56.0471 109.264 56.0471 113.549C56.0471 117.834 59.5154 121.312 63.8095 121.312C68.0944 121.312 71.5627 117.834 71.5627 113.549C71.5627 109.264 68.0944 105.787 63.8095 105.787ZM63.8095 119.623C60.4604 119.623 57.7262 116.898 57.7262 113.549C57.7262 110.2 60.4604 107.475 63.8095 107.475C67.1585 107.475 69.8836 110.2 69.8836 113.549C69.8836 116.898 67.1585 119.623 63.8095 119.623Z" fill="#233973"/>
<path d="M63.8095 104.099C58.5978 104.099 54.3588 108.338 54.3588 113.549C54.3588 118.761 58.5978 123 63.8095 123C69.0119 123 73.251 118.761 73.251 113.549C73.251 108.338 69.0119 104.099 63.8095 104.099ZM63.8095 119.623C60.4604 119.623 57.7262 116.898 57.7262 113.549C57.7262 110.2 60.4604 107.475 63.8095 107.475C67.1585 107.475 69.8836 110.2 69.8836 113.549C69.8836 116.898 67.1585 119.623 63.8095 119.623Z" fill="#233973"/>
<path d="M46.5872 93.1431C47.2937 90.4364 48.6425 87.904 50.4868 85.8212L50.7712 85.5C55.1938 80.4902 60.9376 76.8843 67.3879 75.0859C67.7733 74.9758 68.1769 75.0584 68.4981 75.297C68.8101 75.5355 69.0028 75.9117 69.0028 76.3063V93.4643C69.0028 94.1616 68.4339 94.7305 67.7366 94.7305H47.8259C47.4314 94.7305 47.0643 94.547 46.8258 94.235C46.578 93.9322 46.4955 93.5285 46.5872 93.1431Z" stroke="#FEFFFE" stroke-miterlimit="10"/>
<path d="M63.8095 104.099C58.5978 104.099 54.3588 108.338 54.3588 113.549C54.3588 118.761 58.5978 123 63.8095 123C69.0119 123 73.251 118.761 73.251 113.549C73.251 108.338 69.0119 104.099 63.8095 104.099ZM63.8095 119.623C60.4604 119.623 57.7262 116.898 57.7262 113.549C57.7262 110.2 60.4604 107.475 63.8095 107.475C67.1585 107.475 69.8836 110.2 69.8836 113.549C69.8836 116.898 67.1585 119.623 63.8095 119.623Z" fill="#FEFFFE"/>
<path d="M63.8095 106.87C60.1209 106.87 57.1298 109.87 57.1298 113.549C57.1298 117.229 60.1209 120.229 63.8095 120.229C67.4888 120.229 70.48 117.229 70.48 113.549C70.48 109.87 67.4888 106.87 63.8095 106.87ZM63.8095 119.623C60.4604 119.623 57.7262 116.898 57.7262 113.549C57.7262 110.2 60.4604 107.475 63.8095 107.475C67.1585 107.475 69.8836 110.2 69.8836 113.549C69.8836 116.898 67.1585 119.623 63.8095 119.623Z" fill="#FEFFFE"/>
<path d="M145.485 113.131L168.268 113.131C169.372 113.131 170.268 112.236 170.268 111.131L170.268 102.304C170.268 101.2 169.372 100.304 168.268 100.304L145.485 100.304C144.38 100.304 143.485 101.2 143.485 102.304L143.485 111.131C143.485 112.236 144.38 113.131 145.485 113.131Z" fill="#FEFFFE"/>
<path d="M77.857 47.2661H68.9018V83.1144H77.857V47.2661Z" fill="#FEFFFE"/>
<path d="M150.343 104.099C145.131 104.099 140.892 108.338 140.892 113.549C140.892 118.761 145.131 123 150.343 123C155.554 123 159.794 118.761 159.794 113.549C159.794 108.338 155.554 104.099 150.343 104.099ZM150.343 120.229C146.664 120.229 143.663 117.229 143.663 113.549C143.663 109.87 146.664 106.87 150.343 106.87C154.022 106.87 157.023 109.87 157.023 113.549C157.023 117.229 154.022 120.229 150.343 120.229Z" fill="#FEFFFE"/>
</svg>
