<svg width="210" height="162" viewBox="0 0 210 162" fill="none" xmlns="http://www.w3.org/2000/svg">
<rect width="210" height="162" rx="45" fill="#1C2359"/>
<path d="M96.4402 113.362C96.8915 116.742 95.0338 120.403 92.0289 122.099C91.5121 122.39 90.9596 122.627 90.4945 123.014C89.9915 123.433 89.6239 123.978 89.2462 124.516C87.7458 126.673 86.0332 128.667 84.1395 130.474C83.7732 130.827 83.3799 131.175 82.9032 131.346C82.4434 131.513 81.9481 131.478 81.4676 131.527C80.0401 131.654 78.6673 132.444 77.8013 133.635C77.0261 134.696 76.6003 136.107 75.4969 136.789C74.589 137.341 73.4328 137.272 72.5349 137.831C71.5821 138.426 71.1257 139.562 70.4655 140.481C69.6863 141.569 68.478 142.401 67.19 142.478C65.9021 142.554 64.5647 141.749 64.2717 140.473C64.036 139.474 64.4294 138.428 64.8176 137.451C65.5261 135.659 66.2346 133.867 66.9601 132.072C67.1972 131.48 67.4344 130.889 67.5071 130.256C67.5466 129.882 67.5322 129.5 67.5109 129.129C67.3908 126.844 67.292 124.381 68.5281 122.409C69.0966 121.515 69.9141 120.796 70.5295 119.919C71.1448 119.043 71.5473 117.899 71.1381 116.957C70.9206 116.462 70.5086 116.054 70.4576 115.513C70.3988 114.877 70.8751 114.304 71.3154 113.825C72.7332 112.294 74.148 110.745 75.5658 109.213C73.9587 108.114 73.3923 105.724 74.3072 103.913C75.222 102.103 77.4982 101.085 79.3642 101.667C80.6404 102.072 81.9284 101.996 82.6362 103.147C82.9673 103.692 83.1935 104.386 83.7712 104.643C84.1318 104.807 84.5515 104.76 84.9602 104.749C86.6457 104.699 88.3121 105.438 89.3887 106.7C90.2353 107.696 90.7536 109.012 91.7979 109.79C92.5237 110.344 93.4464 110.576 94.27 110.991C95.0638 111.385 96.3211 112.431 96.4402 113.362Z" stroke="white" stroke-miterlimit="10"/>
<path d="M92.081 61.1625L63.8056 77.5219L83.7487 91.5284C83.7656 91.5255 94.2724 62.1069 92.081 61.1625Z" fill="white"/>
<path d="M127.586 86.0988L121.793 118.248L101.85 104.241C101.857 104.231 125.964 84.3649 127.586 86.0988Z" fill="white"/>
<path d="M86.186 70.9535L57.9106 87.3128L77.8536 101.319C77.8636 101.326 88.3774 71.8978 86.186 70.9535Z" fill="white"/>
<path d="M121.691 95.8898L115.898 128.039L95.9548 114.032C95.9548 114.032 120.069 94.1559 121.691 95.8898Z" fill="white"/>
<path d="M78.2981 101.364C78.2981 101.364 91.5517 27.368 148.071 20.9434C148.071 20.9434 166.204 66.5511 96.8771 114.412L78.2981 101.364Z" stroke="white" stroke-miterlimit="10"/>
<path d="M117.458 66.9873L115.238 65.4279L82.0713 112.652L84.2916 114.211L117.458 66.9873Z" stroke="white" stroke-miterlimit="10"/>
<path d="M94.4793 114.185C94.4793 114.185 93.0267 120.763 85.8122 118.863C85.8122 118.863 91.9012 120.27 94.4793 114.185Z" fill="white"/>
<path d="M87.5224 121.551C87.5224 121.551 86.0698 128.128 78.8553 126.228C78.8553 126.228 84.9443 127.635 87.5224 121.551Z" fill="white"/>
<path d="M84.7156 117.037C84.7156 117.037 83.2631 123.614 76.0486 121.714C76.0486 121.714 82.1375 123.121 84.7156 117.037Z" fill="white"/>
<path d="M76.2035 130.342C76.2035 130.342 74.751 136.919 67.5365 135.019C67.5365 135.019 73.6254 136.426 76.2035 130.342Z" fill="white"/>
<path d="M71.6481 129.864C71.6481 129.864 67.7824 124.339 74.0672 120.322C74.0572 120.316 68.9015 123.846 71.6481 129.864Z" fill="white"/>
<path d="M75.4262 116.906C75.4262 116.906 73.32 110.505 80.4819 108.458C80.4819 108.458 74.5353 110.363 75.4262 116.906Z" fill="white"/>
<path d="M77.1827 107.821C77.1827 107.821 76.148 104.701 79.6491 103.696C79.6491 103.696 76.7471 104.631 77.1827 107.821Z" fill="white"/>
</svg>
