<svg width="210" height="162" viewBox="0 0 210 162" fill="none" xmlns="http://www.w3.org/2000/svg">
<rect width="210" height="162" rx="45" fill="#1C2359"/>
<path d="M107.472 134C134.826 134 157 111.309 157 83.3191C157 55.3288 134.826 32.6381 107.472 32.6381C80.1182 32.6381 57.9437 55.3288 57.9437 83.3191C57.9437 111.309 80.1182 134 107.472 134Z" stroke="white" stroke-miterlimit="10"/>
<path d="M105.945 102.313L92.4789 91.7297L87.7374 94.078L80.0135 97.8954L75.9999 98.1644V115.337L111.587 117.582L121.787 102.664L105.945 102.313Z" fill="#FAFFFA"/>
<path d="M121.545 103.275L111.587 117.582L83.9261 115.834C84.6135 114.582 84.5528 113.258 84.7752 111.758C85.1898 108.975 85.5436 106.244 85.5335 103.42C85.5234 100.275 85.6245 97.2229 85.8469 94.1608L92.4689 91.74L105.935 102.323L121.545 103.275Z" fill="#FAFFFA"/>
<path d="M116.621 118.027L135.072 107.816L142.593 96.2609C142.593 96.2609 144.747 90.4055 145.242 87.7778C145.505 86.4019 143.18 83.7122 140.127 86.9606C138.246 88.9572 135.931 93.2091 135.931 93.2091L130.714 98.7541L122.192 102.665L105.925 102.302L108.907 117.406L116.621 118.027Z" fill="#FAFFFA"/>
<path d="M76.3032 119.475L55.5275 119.517L53 90.2296L77.3445 91.4193L76.3032 119.475Z" fill="#FAFFFA"/>
<path d="M87.141 99.5299L94.511 102.271L102.69 90.7986C102.69 90.7986 107.169 88.864 108.614 88.4089C113.457 86.8674 113.558 82.4707 113.346 81.6018C112.992 80.112 110.545 81.1466 110.545 81.1466L97.5642 85.057L80.0135 97.8954L87.141 99.5299Z" fill="#FAFFFA"/>
<path d="M139.904 49.8111H111.314C110.576 49.8111 109.979 50.4318 109.979 51.187V69.5393C109.979 76.1189 115.196 81.4569 121.626 81.4569H129.592C136.012 81.4569 141.239 76.1189 141.239 69.5393V51.187C141.239 50.4318 140.642 49.8111 139.904 49.8111ZM127.034 65.6806V71.2256H124.133V65.6599C122.697 65.0599 121.686 63.6219 121.686 61.9356C121.686 59.7218 123.435 57.9217 125.609 57.9217C127.772 57.9217 129.532 59.7218 129.532 61.9356C129.532 63.6426 128.49 65.0909 127.034 65.6806Z" fill="#FAFFFA"/>
<path d="M135.86 53.0181H115.691C114.7 53.0181 113.902 52.2008 113.902 51.187V39.1452C113.902 32.4519 119.23 27 125.771 27C132.322 27 137.64 32.4519 137.64 39.1452V51.187C137.65 52.1905 136.851 53.0181 135.86 53.0181ZM117.481 49.3559H134.081V39.1452C134.081 34.4589 130.361 30.6518 125.781 30.6518C121.201 30.6518 117.481 34.4589 117.481 39.1452V49.3559V49.3559Z" fill="#FAFFFA"/>
</svg>
