<svg width="210" height="162" viewBox="0 0 210 162" fill="none" xmlns="http://www.w3.org/2000/svg">
<rect width="210" height="162" rx="45" fill="#1C2359"/>
<path d="M149.121 87.412C149.121 99.3199 144.495 110.497 136.062 118.93C135.232 119.76 134.369 120.568 133.484 121.288C129.057 125.106 124.022 127.939 118.566 129.743C114.128 131.215 109.413 131.978 104.577 131.978C102.242 131.978 99.9512 131.79 97.6715 131.436C88.3975 130.008 79.8207 125.692 73.0588 118.93C68.289 114.161 64.7255 108.494 62.5454 102.297C60.8743 97.5824 60 92.5581 60 87.4231C60 75.5152 64.6259 64.3155 73.0588 55.9048C73.3687 55.5949 73.6786 55.285 73.9885 55.0194C76.4453 52.6622 79.1345 50.6369 82.0119 48.988C87.158 45.9446 92.8574 43.9858 98.8335 43.2222C100.715 42.9787 102.641 42.8459 104.577 42.8459C116.485 42.8459 127.663 47.494 136.073 55.9048C141.053 60.8627 144.694 66.7945 146.864 73.2797V73.3018C148.335 77.7728 149.121 82.5316 149.121 87.412Z" stroke="white" stroke-miterlimit="10"/>
<path d="M102.906 120.159C103.028 122.726 101.899 125.161 100.637 127.374C99.7853 128.824 98.8446 130.263 97.6605 131.425C88.3864 129.997 79.8096 125.681 73.0478 118.919C68.278 114.149 64.7145 108.483 62.5343 102.286C63.2758 101.334 64.2718 100.526 65.5113 99.8843C68.0124 98.6227 70.8898 98.2907 73.6565 97.7927C76.4232 97.2947 79.3006 96.5532 81.3701 94.6497C82.6981 93.4545 83.6277 91.8608 85.011 90.721C86.992 89.0831 89.7034 88.6293 92.2598 88.3859C92.6472 88.3637 93.0898 88.3195 93.4218 88.5297C94.0194 88.9171 93.942 89.8135 93.942 90.5328C93.8424 95.3026 99.4975 98.346 100.372 103.038C100.826 105.473 99.9181 107.974 100.128 110.453C100.383 113.84 102.718 116.794 102.906 120.159Z" stroke="white" stroke-miterlimit="10"/>
<path d="M88.4196 53.5586C88.0323 56.3253 87.1801 59.0367 85.9185 61.5378C84.8893 63.6073 83.5613 65.544 82.9194 67.7795C82.1558 70.5019 82.4878 73.4678 81.7795 76.2124C80.706 80.4289 77.0097 83.8596 72.7269 84.6232C72.3395 83.096 73.0589 81.5245 73.5569 80.0305C74.0549 78.5254 74.2209 76.6661 73.0588 75.5927C71.9854 74.5745 70.2036 74.7405 69.0305 73.8552C68.0788 73.1137 67.7246 71.7857 67.8906 70.6126C68.0566 69.4395 68.6764 68.3549 69.3404 67.3479C70.5356 65.5329 71.9632 63.8729 73.579 62.4121C73.8889 62.1243 74.2209 61.8366 74.3647 61.4382C75.0509 59.5347 74.243 57.1996 73.9774 55.0083C76.4342 52.6511 79.1235 50.6259 82.0008 48.9769C84.0703 49.2204 86.0513 49.984 87.5011 51.0464C87.7888 51.2788 88.0987 51.5223 88.2647 51.8322C88.5413 52.3412 88.5082 52.9831 88.4196 53.5586Z" stroke="white" stroke-miterlimit="10"/>
<path d="M133.473 121.277C133.539 120.557 133.55 119.827 133.539 119.13C133.517 117.824 133.417 116.363 132.399 115.555C131.425 114.769 130.042 114.935 128.825 115.223C127.209 115.599 125.626 116.153 124.199 117.016C122.096 118.322 120.48 120.236 118.909 122.118C117.503 123.789 116.574 128.215 118.555 129.721L133.473 121.277Z" fill="white"/>
<path d="M146.841 73.2686V73.2908C146.244 77.795 144.551 82.2992 143.532 86.7812C142.669 90.5882 142.005 94.9264 138.818 97.173C138.696 95.5794 138.552 93.9525 137.844 92.5028C137.158 91.053 135.797 89.8135 134.203 89.7582C133.539 89.7139 132.864 89.8799 132.222 89.6807C130.772 89.1827 130.628 87.246 130.485 85.7078C130.097 81.8233 127.32 77.9831 123.457 77.297C121.288 76.9096 118.887 77.4851 116.906 76.4891C116.053 76.0796 115.378 75.4156 114.737 74.7295C113.497 73.3904 112.324 71.8742 111.881 70.1035C111.284 67.6467 112.114 65.0792 113.165 62.8105C113.519 62.1133 113.862 61.3829 113.951 60.5971C114.161 58.7157 112.645 57.0225 110.918 56.3032C109.159 55.5838 107.244 55.606 105.363 55.5174C103.482 55.44 101.501 55.1854 99.9844 54.0677C99.6303 53.8242 99.3204 53.5254 99.1544 53.1602C98.9884 52.7839 98.9441 52.3745 98.9441 51.9871C98.922 50.3714 99.254 48.7999 99.3536 47.1952C99.42 45.9336 98.8556 44.4285 98.8003 43.2111C100.682 42.9676 102.607 42.8348 104.544 42.8348C116.452 42.8348 127.629 47.4829 136.04 55.8937C141.031 60.8516 144.672 66.7835 146.841 73.2686Z" stroke="white" stroke-miterlimit="10"/>
<path d="M87.003 27.9167H95.4027C95.4027 27.9167 96.5315 28.0495 96.8857 31.2479L97.9038 37.0911C97.9038 37.0911 98.1252 38.8286 96.3102 38.7733C96.3102 38.7733 95.0486 39.1053 94.6059 34.0588L94.3071 32.0447V49.9508C94.3071 49.9508 94.119 51.4338 92.7577 51.4006C92.7577 51.4006 91.2859 51.5112 91.2305 49.9729V40.8428H90.8653V49.9287C90.8653 49.9287 90.8985 51.5666 89.3492 51.4006C89.3492 51.4006 87.9879 51.4891 87.9547 49.7516V32.3988C87.9547 32.3988 87.2907 38.6184 85.6639 38.6626C85.6639 38.6626 83.9153 38.8508 84.2584 37.1575L85.6528 29.0124C85.6528 29.0234 85.9295 27.9167 87.003 27.9167Z" fill="white"/>
<path d="M90.9649 27.1089C92.6519 27.1089 94.0194 25.7414 94.0194 24.0544C94.0194 22.3675 92.6519 21 90.9649 21C89.278 21 87.9105 22.3675 87.9105 24.0544C87.9105 25.7414 89.278 27.1089 90.9649 27.1089Z" fill="white"/>
<path d="M130.673 60.1212L128.315 56.5688C128.072 56.1925 127.651 55.9712 127.198 55.9712L87.1911 55.8052L82.4435 55.783C81.9455 55.783 81.5139 56.0486 81.2814 56.447C81.1818 56.6352 81.1155 56.8233 81.0933 57.0225L80.6174 63.4855C80.6174 63.5077 80.6174 63.5077 80.6174 63.5298L80.551 65.3448C81.4585 65.4444 82.366 65.389 83.2181 65.1124L83.2845 63.6405L83.6719 58.428L87.9547 58.4501L126.478 58.6161L127.862 60.7078L88.9508 102.208L88.0211 103.204L81.7795 103.282L81.8569 101.013C80.7392 101.511 79.7653 102.297 79.0902 103.37L79.046 104.566C79.046 104.942 79.1677 105.285 79.4333 105.562C79.6768 105.827 80.0309 105.971 80.4072 105.949L88.6077 105.872C88.9618 105.872 89.3049 105.706 89.5595 105.44L90.5333 104.411L130.518 61.7591C130.96 61.3164 131.027 60.6192 130.673 60.1212Z" fill="white"/>
<path d="M137.601 59.9553C139.382 56.8233 138.287 52.8282 135.155 51.0465C132.023 49.2647 128.028 50.3603 126.246 53.4922C124.464 56.6241 125.56 60.6193 128.692 62.401C131.813 64.1828 135.819 63.0761 137.601 59.9553Z" fill="white"/>
<path d="M90.2125 110.21C88.4196 113.353 84.4245 114.448 81.2815 112.666C78.1607 110.874 77.0651 106.879 78.8468 103.736C78.9243 103.614 78.9907 103.492 79.0903 103.359C79.7764 102.286 80.7393 101.5 81.857 101.002C83.6941 100.194 85.8853 100.238 87.7445 101.29C88.1761 101.533 88.5967 101.832 88.9398 102.197C89.6259 102.795 90.1571 103.558 90.5334 104.388C91.3081 106.226 91.2638 108.373 90.2125 110.21Z" fill="white"/>
<path d="M137.501 107.853C139.283 104.721 138.187 100.726 135.055 98.9438C131.923 97.162 127.928 98.2577 126.146 101.39C124.365 104.521 125.46 108.517 128.592 110.298C131.724 112.08 135.719 110.985 137.501 107.853Z" fill="white"/>
<path d="M87.9548 58.4723C88.0322 59.6896 87.7666 60.9512 87.1026 62.0911C86.2394 63.6405 84.8118 64.6918 83.2182 65.1234C82.366 65.389 81.4585 65.4555 80.551 65.3559C79.7432 65.2341 78.9353 64.9796 78.1938 64.548C75.073 62.7551 73.9774 58.76 75.7591 55.617C77.5409 52.4962 81.5249 51.4006 84.6679 53.1823C85.7857 53.8242 86.6489 54.7317 87.1911 55.8052C87.6449 56.6241 87.9105 57.5427 87.9548 58.4723Z" fill="white"/>
<path d="M65.3121 101.434H73.7118C73.7118 101.434 74.8406 101.567 75.1948 104.765L76.2129 110.608C76.2129 110.608 76.4342 112.346 74.6193 112.29C74.6193 112.29 73.3577 112.622 72.915 107.576L72.6162 105.562V123.468C72.6162 123.468 72.4281 124.951 71.0668 124.918C71.0668 124.918 69.595 125.028 69.5396 123.49V114.36H69.1744V123.446C69.1744 123.446 69.2076 125.084 67.6582 124.918C67.6582 124.918 66.297 125.006 66.2638 123.269V105.916C66.2638 105.916 65.5998 112.135 63.973 112.18C63.973 112.18 62.2244 112.368 62.5675 110.675L63.9619 102.529C63.9619 102.54 64.2386 101.434 65.3121 101.434Z" fill="white"/>
<path d="M69.2851 100.626C70.972 100.626 72.3396 99.2582 72.3396 97.5713C72.3396 95.8844 70.972 94.5168 69.2851 94.5168C67.5982 94.5168 66.2307 95.8844 66.2307 97.5713C66.2307 99.2582 67.5982 100.626 69.2851 100.626Z" fill="white"/>
<path d="M118.765 116.64H127.165C127.165 116.64 128.293 116.772 128.648 119.971L129.666 125.814C129.666 125.814 129.887 127.551 128.072 127.496C128.072 127.496 126.81 127.828 126.368 122.782L126.069 120.767V138.674C126.069 138.674 125.881 140.157 124.52 140.123C124.52 140.123 123.048 140.234 122.992 138.696V129.566H122.627V138.651C122.627 138.651 122.66 140.289 121.111 140.123C121.111 140.123 119.75 140.212 119.717 138.474V121.122C119.717 121.122 119.053 127.341 117.426 127.385C117.426 127.385 115.677 127.574 116.02 125.88L117.415 117.735C117.415 117.746 117.691 116.64 118.765 116.64Z" fill="white"/>
<path d="M122.738 115.843C124.425 115.843 125.792 114.475 125.792 112.788C125.792 111.101 124.425 109.734 122.738 109.734C121.051 109.734 119.683 111.101 119.683 112.788C119.683 114.475 121.051 115.843 122.738 115.843Z" fill="white"/>
<path d="M140.091 67.8458H148.49C148.49 67.8458 149.619 67.9786 149.973 71.1769L150.991 77.0202C150.991 77.0202 151.213 78.7577 149.398 78.7024C149.398 78.7024 148.136 79.0344 147.694 73.9879L147.395 71.9737V89.8799C147.395 89.8799 147.207 91.3628 145.845 91.3296C145.845 91.3296 144.373 91.4403 144.318 89.902V80.7719H143.953V89.8578C143.953 89.8578 143.986 91.4956 142.437 91.3296C142.437 91.3296 141.076 91.4182 141.042 89.6807V72.3279C141.042 72.3279 140.378 78.5474 138.752 78.5917C138.752 78.5917 137.003 78.7798 137.346 77.0866L138.74 68.9414C138.74 68.9525 139.017 67.8458 140.091 67.8458Z" fill="white"/>
<path d="M144.064 67.0491C145.751 67.0491 147.118 65.6815 147.118 63.9946C147.118 62.3077 145.751 60.9402 144.064 60.9402C142.377 60.9402 141.009 62.3077 141.009 63.9946C141.009 65.6815 142.377 67.0491 144.064 67.0491Z" fill="white"/>
<path d="M130.905 103.282H86.4829V105.96H130.905V103.282Z" fill="white"/>
</svg>
