<svg width="210" height="162" viewBox="0 0 210 162" fill="none" xmlns="http://www.w3.org/2000/svg">
<rect width="210" height="162" rx="45" fill="#1C2359"/>
<path d="M116.459 110.787H92.2584C89.4969 110.787 87.2584 113.026 87.2584 115.787V131.561C87.2584 134.322 89.4969 136.561 92.2584 136.561H116.459C119.22 136.561 121.459 134.322 121.459 131.561V115.787C121.459 113.026 119.22 110.787 116.459 110.787Z" fill="white"/>
<path d="M68.2186 36.1049L72.3042 39.9935L77.8074 38.8319L75.3757 43.9117L78.1815 48.7849L72.6094 48.0465L68.829 52.2207L67.815 46.688L62.676 44.3843L67.6279 41.7065L68.2186 36.1049Z" stroke="white" stroke-miterlimit="10"/>
<path d="M85.4962 28.7607L89.0206 33.1514L94.6321 32.7379L91.5408 37.4437L93.6574 42.6614L88.233 41.1749L83.9308 44.8076L83.665 39.1764L78.8805 36.2131L84.1474 34.2245L85.4962 28.7607Z" stroke="white" stroke-miterlimit="10"/>
<path d="M141.208 35.0712L137.132 38.9598L131.619 37.7981L134.05 42.878L131.245 47.7512L136.827 47.0128L140.597 51.187L141.621 45.6543L146.76 43.3506L141.808 40.6728L141.208 35.0712Z" stroke="white" stroke-miterlimit="10"/>
<path d="M123.93 27.7271L120.415 32.1178L114.794 31.7142L117.885 36.42L115.769 41.6278L121.193 40.1413L125.495 43.774L125.761 38.1526L130.546 35.1795L125.279 33.1909L123.93 27.7271Z" stroke="white" stroke-miterlimit="10"/>
<path d="M104.871 25L107.47 29.9913L113.061 30.6706L109.124 34.6872L110.206 40.22L105.156 37.7096L100.234 40.4464L101.061 34.8743L96.9456 31.0447L102.488 30.0996L104.871 25Z" stroke="white" stroke-miterlimit="10"/>
<path d="M151.604 61.7308C145.982 54.0716 132.337 53.7959 132.337 53.7959L104.782 53.7368H84.1081C54.9578 53.7171 54.5738 69.2718 54.5738 69.2718C49.4447 99.7807 80.3867 92.6728 80.3867 92.6728C82.1096 95.9018 90.9698 99.2392 90.9698 99.2392L99.2689 135.438H112.451L117.728 99.6625L127.563 92.6334C136.226 94.7697 146.76 91.3733 146.76 91.3733C164.195 83.5762 151.604 61.7308 151.604 61.7308ZM69.5871 78.0435C67.3031 71.3589 71.1918 66.9682 76.6654 64.1132C76.6654 64.1132 73.8006 82.5228 80.3572 84.5902C68.8093 84.2063 69.5871 78.0435 69.5871 78.0435ZM128.212 84.7084C134.218 82.0602 130.093 63.995 130.093 63.995C135.458 66.3381 139.455 70.3547 137.821 77.2067C137.821 77.2067 139.042 83.2711 128.212 84.7084Z" stroke="white" stroke-miterlimit="10"/>
</svg>
