<svg width="210" height="162" viewBox="0 0 210 162" fill="none" xmlns="http://www.w3.org/2000/svg">
<rect width="210" height="162" rx="45" fill="#1C2359"/>
<mask id="mask0_2_1140" style="mask-type:alpha" maskUnits="userSpaceOnUse" x="32" y="23" width="165" height="118">
<path d="M105.546 24C73.6473 24 47.7814 49.8547 47.7814 81.7534C47.7814 113.663 73.6473 139.518 105.546 139.518C137.445 139.518 163.311 113.663 163.311 81.7534C163.311 49.8547 137.445 24 105.546 24ZM105.546 133.631C76.8932 133.631 53.6687 110.406 53.6687 81.7534C53.6687 53.1117 76.8932 29.8761 105.546 29.8761C134.199 29.8761 157.423 53.1117 157.423 81.7534C157.423 110.406 134.199 133.631 105.546 133.631Z" stroke="white" stroke-miterlimit="10"/>
<path d="M173.261 48.5676C173.261 48.5676 137.892 49.6197 131.3 70.3146L127.741 75.687C127.741 75.687 126.051 78.5075 128.188 80.858C128.188 80.858 131.199 83.3315 118.563 97.0871C118.563 97.0871 114.825 101.318 123.376 102.001C123.376 102.001 125.245 102.84 124.976 104.362C124.976 104.362 123.107 105.739 125.312 106.578C125.312 106.578 126.644 108.94 124.842 109.723C124.842 109.723 123.04 111.346 125.916 112.029C125.916 112.029 132.061 114.48 126.319 118.51C126.319 118.51 120.701 124.9 137.545 125.538C137.545 125.538 148.369 125.785 148.637 127.452L148.772 134.616H173.272V48.5676H173.261Z" stroke="white" stroke-miterlimit="10"/>
<path d="M90.7271 102.001C90.7271 102.001 88.858 102.84 89.1266 104.362C89.1266 104.362 90.9957 105.739 88.7908 106.578C88.7908 106.578 87.4589 108.929 89.2609 109.723C89.2609 109.723 91.0629 111.346 88.1976 112.029C88.1976 112.029 83.1498 114.044 86.4852 117.424C86.4852 117.424 87.6268 121.364 85.8696 123.994C84.0452 124.766 81.1351 125.359 76.5686 125.538C76.5686 125.538 65.7454 125.785 65.4768 127.452L65.3425 134.616H40.8421V48.5676C40.8421 48.5676 76.2104 49.6197 82.8028 70.3146L86.3621 75.687C86.3621 75.687 88.0633 78.5075 85.9143 80.858C85.9143 80.858 82.9148 83.3315 95.5399 97.0871C95.5399 97.0983 99.2894 101.318 90.7271 102.001Z" stroke="white" stroke-miterlimit="10"/>
<path d="M96.0436 104.015L91.1525 105.862L90.9174 105.571L95.8197 103.735L96.0436 104.015Z" fill="#BEBFBE"/>
<path d="M95.6182 113.115L90.8055 111.089L90.8279 110.72L95.6518 112.745L95.6182 113.115Z" fill="#BEBFBE"/>
<path d="M96.3346 108.582L91.1077 108.571L90.9846 108.224L96.2115 108.235L96.3346 108.582Z" fill="#BEBFBE"/>
<path d="M117.466 103.859L122.357 105.694L122.592 105.414L117.701 103.568L117.466 103.859Z" fill="#BEBFBE"/>
<path d="M117.891 112.947L122.704 110.921L122.682 110.552L117.869 112.589L117.891 112.947Z" fill="#BEBFBE"/>
<path d="M117.175 108.425L122.413 108.403L122.525 108.056L117.298 108.067L117.175 108.425Z" fill="#BEBFBE"/>
<path d="M36.2643 67.9866C36.2643 67.9866 30.7352 44.2808 51.2287 44.9972C51.2287 44.9972 88.1192 39.4681 89.8988 67.9866H36.2643Z" fill="#BEBFBE"/>
<path d="M65.2529 73.1575C83.618 73.1575 98.5059 71.2934 98.5059 68.9939C98.5059 66.6944 83.618 64.8303 65.2529 64.8303C46.8879 64.8303 32 66.6944 32 68.9939C32 71.2934 46.8879 73.1575 65.2529 73.1575Z" fill="#BEBFBE"/>
<path d="M129.677 67.9866C129.677 67.9866 123.174 44.2808 147.283 44.9972C147.283 44.9972 190.676 39.4681 192.78 67.9866H129.677Z" fill="#BEBFBE"/>
<path d="M157.132 73.1575C179.151 73.1575 197 71.2934 197 68.9939C197 66.6944 179.151 64.8303 157.132 64.8303C135.114 64.8303 117.265 66.6944 117.265 68.9939C117.265 71.2934 135.114 73.1575 157.132 73.1575Z" fill="#BEBFBE"/>
<path d="M105.546 139.529C137.448 139.529 163.311 113.667 163.311 81.7646C163.311 49.8621 137.448 24 105.546 24C73.6435 24 47.7814 49.8621 47.7814 81.7646C47.7814 113.667 73.6435 139.529 105.546 139.529Z" stroke="white" stroke-miterlimit="10"/>
</mask>
<g mask="url(#mask0_2_1140)">
<ellipse cx="105.311" cy="82.2011" rx="57.6414" ry="58.2011" fill="#D9D9D9"/>
</g>
</svg>
